<?xml version="1.0" encoding="UTF-8" standalone="no"?>
<svg
   xmlns:dc="http://purl.org/dc/elements/1.1/"
   xmlns:cc="http://creativecommons.org/ns#"
   xmlns:rdf="http://www.w3.org/1999/02/22-rdf-syntax-ns#"
   xmlns:svg="http://www.w3.org/2000/svg"
   xmlns="http://www.w3.org/2000/svg"
   xmlns:sodipodi="http://sodipodi.sourceforge.net/DTD/sodipodi-0.dtd"
   xmlns:inkscape="http://www.inkscape.org/namespaces/inkscape"
   viewBox="0 0 64 64"
   version="1.1"
   x="0px"
   y="0px"
   id="svg34"
   sodipodi:docname="rope.svg"
   inkscape:version="1.0.1 (3bc2e813f5, 2020-09-07)"
   width="64"
   height="64">
  <metadata
     id="metadata40">
    <rdf:RDF>
      <cc:Work
         rdf:about="">
        <dc:format>image/svg+xml</dc:format>
        <dc:type
           rdf:resource="http://purl.org/dc/dcmitype/StillImage" />
        <dc:title></dc:title>
      </cc:Work>
    </rdf:RDF>
  </metadata>
  <defs
     id="defs38" />
  <sodipodi:namedview
     pagecolor="#ffffff"
     bordercolor="#666666"
     borderopacity="1"
     objecttolerance="10"
     gridtolerance="10"
     guidetolerance="10"
     inkscape:pageopacity="0"
     inkscape:pageshadow="2"
     inkscape:window-width="1680"
     inkscape:window-height="987"
     id="namedview36"
     showgrid="false"
     inkscape:zoom="2.1221115"
     inkscape:cx="11.319938"
     inkscape:cy="3.4978815"
     inkscape:window-x="-8"
     inkscape:window-y="13"
     inkscape:window-maximized="1"
     inkscape:current-layer="svg34"
     inkscape:document-rotation="0"
     units="px" />
  <g
     transform="matrix(8.6389409,0,0,8.6389409,-4.5355948,-2497.1593)"
     id="g28"
     style="opacity:1">
    <path
       style="color:#000000;font-style:normal;font-variant:normal;font-weight:normal;font-stretch:normal;font-size:medium;line-height:normal;font-family:sans-serif;font-variant-ligatures:normal;font-variant-position:normal;font-variant-caps:normal;font-variant-numeric:normal;font-variant-alternates:normal;font-feature-settings:normal;text-indent:0;text-align:start;text-decoration:none;text-decoration-line:none;text-decoration-style:solid;text-decoration-color:#000000;letter-spacing:normal;word-spacing:normal;text-transform:none;writing-mode:lr-tb;direction:ltr;text-orientation:mixed;dominant-baseline:auto;baseline-shift:baseline;text-anchor:start;white-space:normal;shape-padding:0;clip-rule:nonzero;display:inline;overflow:visible;visibility:visible;opacity:1;isolation:auto;mix-blend-mode:normal;color-interpolation:sRGB;color-interpolation-filters:linearRGB;solid-color:#000000;solid-opacity:1;fill:#000000;fill-opacity:1;fill-rule:nonzero;stroke:none;stroke-width:0.264583;stroke-linecap:butt;stroke-linejoin:miter;stroke-miterlimit:4;stroke-dasharray:none;stroke-dashoffset:0;stroke-opacity:1;color-rendering:auto;image-rendering:auto;shape-rendering:auto;text-rendering:auto;enable-background:accumulate"
       d="m 3.0373072,291.94642 c -0.1018646,0 -0.2037027,0.0383 -0.28067,0.1152 l -0.024871,0.0249 c -0.1538817,0.15385 -0.1538817,0.40727 0,0.5611 l 1.6211285,1.62079 c 0.1539081,0.15382 0.4074848,0.1538 0.5613929,0 l 0.0254,-0.0249 c 0.1538817,-0.15383 0.1539082,-0.40728 0,-0.56108 l -1.6216312,-1.62078 c -0.076967,-0.0769 -0.1788054,-0.1152 -0.2807229,-0.1152 z m -0.093557,0.30223 c 0.053499,-0.0534 0.1336675,-0.0534 0.1871133,0 l 1.6216577,1.62079 c 0.053446,0.0534 0.05297,0.13359 0,0.187 l -0.024871,0.0249 c -0.053499,0.0534 -0.1336939,0.0534 -0.1871133,0 l -1.6211285,-1.62079 c -0.053472,-0.0535 -0.053472,-0.13359 0,-0.18703 z"
       id="path2" />
    <path
       style="color:#000000;font-style:normal;font-variant:normal;font-weight:normal;font-stretch:normal;font-size:medium;line-height:normal;font-family:sans-serif;font-variant-ligatures:normal;font-variant-position:normal;font-variant-caps:normal;font-variant-numeric:normal;font-variant-alternates:normal;font-feature-settings:normal;text-indent:0;text-align:start;text-decoration:none;text-decoration-line:none;text-decoration-style:solid;text-decoration-color:#000000;letter-spacing:normal;word-spacing:normal;text-transform:none;writing-mode:lr-tb;direction:ltr;text-orientation:mixed;dominant-baseline:auto;baseline-shift:baseline;text-anchor:start;white-space:normal;shape-padding:0;clip-rule:nonzero;display:inline;overflow:visible;visibility:visible;opacity:1;isolation:auto;mix-blend-mode:normal;color-interpolation:sRGB;color-interpolation-filters:linearRGB;solid-color:#000000;solid-opacity:1;fill:#000000;fill-opacity:1;fill-rule:nonzero;stroke:none;stroke-width:0.264583;stroke-linecap:butt;stroke-linejoin:miter;stroke-miterlimit:4;stroke-dasharray:none;stroke-dashoffset:0;stroke-opacity:1;color-rendering:auto;image-rendering:auto;shape-rendering:auto;text-rendering:auto;enable-background:accumulate"
       d="m 3.8355022,291.14814 c -0.1019175,0 -0.2037821,0.0388 -0.2807229,0.11576 l -0.024871,0.0249 c -0.1539082,0.15383 -0.1539082,0.4073 0,0.5611 l 1.6216047,1.62081 c 0.1539082,0.15381 0.4075113,0.15381 0.5614194,0 l 0.024871,-0.0254 c 0.1539346,-0.15383 0.1539346,-0.4073 0,-0.5611 l -1.6216576,-1.62025 c -0.076941,-0.0769 -0.1788055,-0.11576 -0.28067,-0.11576 z m -0.09361,0.30277 c 0.053472,-0.0534 0.133694,-0.0534 0.1871663,0 l 1.6216312,1.62028 c 0.053446,0.0534 0.053446,0.13361 0,0.18701 l -0.024871,0.0249 c -0.053446,0.0534 -0.1336411,0.0534 -0.1871398,0 l -1.6216312,-1.62026 c -0.053446,-0.0534 -0.053446,-0.13361 0,-0.18703 z"
       id="path4" />
    <path
       style="color:#000000;font-style:normal;font-variant:normal;font-weight:normal;font-stretch:normal;font-size:medium;line-height:normal;font-family:sans-serif;font-variant-ligatures:normal;font-variant-position:normal;font-variant-caps:normal;font-variant-numeric:normal;font-variant-alternates:normal;font-feature-settings:normal;text-indent:0;text-align:start;text-decoration:none;text-decoration-line:none;text-decoration-style:solid;text-decoration-color:#000000;letter-spacing:normal;word-spacing:normal;text-transform:none;writing-mode:lr-tb;direction:ltr;text-orientation:mixed;dominant-baseline:auto;baseline-shift:baseline;text-anchor:start;white-space:normal;shape-padding:0;clip-rule:nonzero;display:inline;overflow:visible;visibility:visible;opacity:1;isolation:auto;mix-blend-mode:normal;color-interpolation:sRGB;color-interpolation-filters:linearRGB;solid-color:#000000;solid-opacity:1;fill:#000000;fill-opacity:1;fill-rule:nonzero;stroke:none;stroke-width:0.264583;stroke-linecap:butt;stroke-linejoin:miter;stroke-miterlimit:4;stroke-dasharray:none;stroke-dashoffset:0;stroke-opacity:1;color-rendering:auto;image-rendering:auto;shape-rendering:auto;text-rendering:auto;enable-background:accumulate"
       d="m 6.2599322,289.06341 c -0.515276,-0.0169 -0.9882452,0.2008 -1.3094229,0.55957 -0.1995752,0.22289 -0.3507581,0.54764 -0.4931304,0.87622 -0.1424252,0.32864 -0.2738967,0.66223 -0.4006586,0.88196 l -0.00265,0.003 0.2269331,0.13586 0.00423,-0.006 v 0 c 0.1443566,-0.25025 0.2737908,-0.58579 0.4135702,-0.90832 0.1397529,-0.32253 0.2918618,-0.6309 0.4481512,-0.80547 0.2707746,-0.30244 0.6675173,-0.48548 1.1031802,-0.4712 0.3747558,0.0122 0.7113323,0.16791 0.9584002,0.4149 v 0 l 0.049107,0.0496 c 0.2470943,0.24696 0.4034895,0.58325 0.4156075,0.9579 0.014287,0.4354 -0.1693863,0.83195 -0.4719638,1.10254 -0.1746514,0.15621 -0.4826794,0.30827 -0.8054181,0.44797 -0.3226858,0.1397 -0.6589183,0.26958 -0.9092671,0.41383 v 0 l -0.00609,0.004 0.1359165,0.2268 0.0037,-0.003 v 0 0 c 0.2198688,-0.12641 0.5518679,-0.25685 0.8798454,-0.39886 0.3287713,-0.14234 0.6542352,-0.29397 0.8772525,-0.49342 0.3589073,-0.32099 0.576289,-0.79317 0.5593292,-1.3082 -0.014288,-0.44307 -0.1997869,-0.84395 -0.4926542,-1.13665 l -0.049107,-0.0496 v 0 C 7.102048,289.26447 6.7012307,289.07886 6.2580801,289.0646 Z"
       id="path6" />
    <path
       style="color:#000000;font-style:normal;font-variant:normal;font-weight:normal;font-stretch:normal;font-size:medium;line-height:normal;font-family:sans-serif;font-variant-ligatures:normal;font-variant-position:normal;font-variant-caps:normal;font-variant-numeric:normal;font-variant-alternates:normal;font-feature-settings:normal;text-indent:0;text-align:start;text-decoration:none;text-decoration-line:none;text-decoration-style:solid;text-decoration-color:#000000;letter-spacing:normal;word-spacing:normal;text-transform:none;writing-mode:lr-tb;direction:ltr;text-orientation:mixed;dominant-baseline:auto;baseline-shift:baseline;text-anchor:start;white-space:normal;shape-padding:0;clip-rule:nonzero;display:inline;overflow:visible;visibility:visible;opacity:1;isolation:auto;mix-blend-mode:normal;color-interpolation:sRGB;color-interpolation-filters:linearRGB;solid-color:#000000;solid-opacity:1;fill:#000000;fill-opacity:1;fill-rule:nonzero;stroke:none;stroke-width:0.264583;stroke-linecap:butt;stroke-linejoin:miter;stroke-miterlimit:4;stroke-dasharray:none;stroke-dashoffset:0;stroke-opacity:1;color-rendering:auto;image-rendering:auto;shape-rendering:auto;text-rendering:auto;enable-background:accumulate"
       d="m 6.1110511,289.79242 c -0.3373172,-0.0111 -0.6472237,0.13131 -0.8575939,0.36632 -0.1337469,0.14938 -0.2164027,0.34745 -0.298794,0.54715 -0.082418,0.19968 -0.1625335,0.40251 -0.2625989,0.55542 -0.081624,0.12454 -0.1953948,0.24053 -0.3081073,0.37097 l 0.2005542,0.17309 c 0.1050925,-0.12158 0.2278062,-0.24519 0.3287712,-0.39939 0.1221581,-0.18664 0.2053696,-0.40296 0.2864115,-0.59933 0.081015,-0.1964 0.1617927,-0.3719 0.2506927,-0.47123 0.1599935,-0.17867 0.3942027,-0.28696 0.6518804,-0.27847 0.2217208,0.007 0.4205023,0.0995 0.5665523,0.24543 l 0.031009,0.0304 c 0.14605,0.146 0.2384425,0.34473 0.2455863,0.56629 0.00847,0.25754 -0.09988,0.49162 -0.2786592,0.65154 -0.099351,0.0888 -0.2754841,0.17007 -0.4719637,0.25108 -0.1964796,0.081 -0.4124061,0.16365 -0.599149,0.28573 -0.1533789,0.10028 -0.2783946,0.22161 -0.4011348,0.33012 l 0.1757627,0.19788 c 0.1284552,-0.11356 0.2445015,-0.22426 0.3701257,-0.30639 0.1530085,-0.10001 0.3559175,-0.1806 0.5557043,-0.26297 0.1998398,-0.0823 0.3974571,-0.16443 0.5469202,-0.2981 0.2351352,-0.21029 0.3776398,-0.52004 0.3665273,-0.85717 -0.00926,-0.29009 -0.13081,-0.55335 -0.3225535,-0.74502 l -0.031036,-0.0305 c -0.19177,-0.19169 -0.45466,-0.31355 -0.744908,-0.32292 z"
       id="path8" />
    <path
       style="color:#000000;font-style:normal;font-variant:normal;font-weight:normal;font-stretch:normal;font-size:medium;line-height:normal;font-family:sans-serif;font-variant-ligatures:normal;font-variant-position:normal;font-variant-caps:normal;font-variant-numeric:normal;font-variant-alternates:normal;font-feature-settings:normal;text-indent:0;text-align:start;text-decoration:none;text-decoration-line:none;text-decoration-style:solid;text-decoration-color:#000000;letter-spacing:normal;word-spacing:normal;text-transform:none;writing-mode:lr-tb;direction:ltr;text-orientation:mixed;dominant-baseline:auto;baseline-shift:baseline;text-anchor:start;white-space:normal;shape-padding:0;clip-rule:nonzero;display:inline;overflow:visible;visibility:visible;opacity:1;isolation:auto;mix-blend-mode:normal;color-interpolation:sRGB;color-interpolation-filters:linearRGB;solid-color:#000000;solid-opacity:1;fill:#000000;fill-opacity:1;fill-rule:nonzero;stroke:none;stroke-width:0.265;stroke-linecap:round;stroke-linejoin:round;stroke-miterlimit:4;stroke-dasharray:none;stroke-dashoffset:0;stroke-opacity:1;color-rendering:auto;image-rendering:auto;shape-rendering:auto;text-rendering:auto;enable-background:accumulate"
       d="m 5.9885226,290.43671 c -0.1772973,-0.006 -0.3409685,0.069 -0.4518025,0.19269 -0.074295,0.083 -0.1117864,0.18079 -0.1499129,0.27385 a 0.13255838,0.13248789 0 1 0 0.2450571,0.10025 c 0.036936,-0.0902 0.073766,-0.16545 0.1023408,-0.19738 0.060325,-0.0674 0.1484842,-0.10806 0.2460625,-0.10488 0.083926,0.003 0.1583267,0.0374 0.2134923,0.0925 l 0.014023,0.0146 c 0.055192,0.0551 0.089905,0.12965 0.092551,0.21339 0.00318,0.0975 -0.037544,0.18513 -0.1049338,0.24542 -0.071993,0.0643 -0.2899039,0.13674 -0.4755885,0.23509 -0.1558396,0.0825 -0.4528344,0.25109 -0.4528344,0.25109 a 0.13255838,0.13248789 0 1 0 0.1307835,0.23042 c 0,0 0.2992438,-0.1692 0.4460875,-0.24696 0.1458119,-0.0772 0.3704167,-0.13107 0.52832,-0.27228 0.123825,-0.11076 0.1991519,-0.27435 0.1933575,-0.45157 -0.00476,-0.15263 -0.069136,-0.29128 -0.1701006,-0.39216 l -0.014552,-0.0145 c -0.1009385,-0.10089 -0.2397654,-0.16452 -0.3923506,-0.16944 z"
       id="path10" />
    <path
       style="color:#000000;font-style:normal;font-variant:normal;font-weight:normal;font-stretch:normal;font-size:medium;line-height:normal;font-family:sans-serif;font-variant-ligatures:normal;font-variant-position:normal;font-variant-caps:normal;font-variant-numeric:normal;font-variant-alternates:normal;font-feature-settings:normal;text-indent:0;text-align:start;text-decoration:none;text-decoration-line:none;text-decoration-style:solid;text-decoration-color:#000000;letter-spacing:normal;word-spacing:normal;text-transform:none;writing-mode:lr-tb;direction:ltr;text-orientation:mixed;dominant-baseline:auto;baseline-shift:baseline;text-anchor:start;white-space:normal;shape-padding:0;clip-rule:nonzero;display:inline;overflow:visible;visibility:visible;opacity:1;isolation:auto;mix-blend-mode:normal;color-interpolation:sRGB;color-interpolation-filters:linearRGB;solid-color:#000000;solid-opacity:1;fill:#000000;fill-opacity:1;fill-rule:nonzero;stroke:none;stroke-width:0.264583;stroke-linecap:butt;stroke-linejoin:miter;stroke-miterlimit:4;stroke-dasharray:none;stroke-dashoffset:0;stroke-opacity:1;color-rendering:auto;image-rendering:auto;shape-rendering:auto;text-rendering:auto;enable-background:accumulate"
       d="m 2.8522576,292.58655 -0.00318,0.003 c -0.2198422,0.12671 -0.5536406,0.25807 -0.8824383,0.40042 -0.3287712,0.14234 -0.653706,0.29395 -0.8767233,0.49342 -0.35890728,0.32099 -0.5767652,0.79322 -0.55983187,1.30821 0.0142875,0.44307 0.19981334,0.84396 0.49262767,1.13665 l 0.049636,0.0491 c 0.2928408,0.29266 0.6939491,0.47858 1.137285,0.49289 0.5152495,0.0169 0.987716,-0.20087 1.3088672,-0.55956 0.1995752,-0.22289 0.3512873,-0.54764 0.4936861,-0.87628 0.1420812,-0.32782 0.2725737,-0.66013 0.399071,-0.87984 v 0 c 2.117e-4,0 0,0 0,-0.003 l 0.00265,-0.003 -0.2269595,-0.1364 -0.0037,0.006 v 0 c -0.1443567,0.25024 -0.2742935,0.58626 -0.4140465,0.90882 -0.1398058,0.32255 -0.2919148,0.63042 -0.4482041,0.80497 -0.2707746,0.30239 -0.6669881,0.48601 -1.1026246,0.47172 v 0 c -0.3748352,-0.0122 -0.7113058,-0.16846 -0.9584266,-0.41542 l -0.049609,-0.0491 c -0.24706794,-0.24696 -0.40296044,-0.58378 -0.41510481,-0.9584 -0.0142875,-0.43545 0.16888354,-0.83198 0.47143461,-1.10257 0.1746779,-0.15621 0.483235,-0.30774 0.8059208,-0.44744 0.3227123,-0.1397 0.6584156,-0.26956 0.9087908,-0.41386 v 0 l 0.00635,-0.004 z"
       id="path12" />
    <path
       style="color:#000000;font-style:normal;font-variant:normal;font-weight:normal;font-stretch:normal;font-size:medium;line-height:normal;font-family:sans-serif;font-variant-ligatures:normal;font-variant-position:normal;font-variant-caps:normal;font-variant-numeric:normal;font-variant-alternates:normal;font-feature-settings:normal;text-indent:0;text-align:start;text-decoration:none;text-decoration-line:none;text-decoration-style:solid;text-decoration-color:#000000;letter-spacing:normal;word-spacing:normal;text-transform:none;writing-mode:lr-tb;direction:ltr;text-orientation:mixed;dominant-baseline:auto;baseline-shift:baseline;text-anchor:start;white-space:normal;shape-padding:0;clip-rule:nonzero;display:inline;overflow:visible;visibility:visible;opacity:1;isolation:auto;mix-blend-mode:normal;color-interpolation:sRGB;color-interpolation-filters:linearRGB;solid-color:#000000;solid-opacity:1;fill:#000000;fill-opacity:1;fill-rule:nonzero;stroke:none;stroke-width:0.264583;stroke-linecap:butt;stroke-linejoin:miter;stroke-miterlimit:4;stroke-dasharray:none;stroke-dashoffset:0;stroke-opacity:1;color-rendering:auto;image-rendering:auto;shape-rendering:auto;text-rendering:auto;enable-background:accumulate"
       d="m 3.099352,292.9162 c -0.1284552,0.11356 -0.2450041,0.22473 -0.3706548,0.30686 -0.152982,0.10007 -0.3553618,0.18013 -0.5551752,0.26249 -0.1998133,0.0824 -0.3979862,0.16494 -0.5474493,0.29861 -0.2351088,0.21029 -0.3776134,0.52004 -0.3665273,0.85717 0.00926,0.29009 0.1313127,0.5528 0.3231091,0.74451 l 0.030506,0.031 c 0.1917965,0.19169 0.4552156,0.31303 0.7454371,0.32237 0.3370791,0.0109 0.6468004,-0.13142 0.8570912,-0.36629 0.1337204,-0.14938 0.2163498,-0.34695 0.2987675,-0.54663 0.082391,-0.19973 0.1630363,-0.40251 0.2631281,-0.55541 0.081571,-0.12465 0.1947334,-0.24043 0.3075781,-0.37097 l -0.2000514,-0.17309 c -0.105066,0.12155 -0.2283619,0.24513 -0.3293004,0.39939 -0.1221581,0.18661 -0.2048404,0.40243 -0.2858823,0.59883 -0.081015,0.19634 -0.1622954,0.3724 -0.2512219,0.4717 -0.1599406,0.17867 -0.3941762,0.28694 -0.6518539,0.27847 -0.2217209,-0.007 -0.4205023,-0.0994 -0.5665788,-0.2454 l -0.03048,-0.031 c -0.1461029,-0.14602 -0.2384425,-0.3447 -0.2455598,-0.56629 -0.00847,-0.25752 0.099854,-0.49106 0.2786327,-0.65098 0.099378,-0.0888 0.2749815,-0.17013 0.4714346,-0.25109 0.1965061,-0.081 0.4129617,-0.16417 0.5996517,-0.28622 0.1534054,-0.10031 0.2779183,-0.22114 0.4006321,-0.32965 z"
       id="path14" />
    <path
       style="color:#000000;font-style:normal;font-variant:normal;font-weight:normal;font-stretch:normal;font-size:medium;line-height:normal;font-family:sans-serif;font-variant-ligatures:normal;font-variant-position:normal;font-variant-caps:normal;font-variant-numeric:normal;font-variant-alternates:normal;font-feature-settings:normal;text-indent:0;text-align:start;text-decoration:none;text-decoration-line:none;text-decoration-style:solid;text-decoration-color:#000000;letter-spacing:normal;word-spacing:normal;text-transform:none;writing-mode:lr-tb;direction:ltr;text-orientation:mixed;dominant-baseline:auto;baseline-shift:baseline;text-anchor:start;white-space:normal;shape-padding:0;clip-rule:nonzero;display:inline;overflow:visible;visibility:visible;opacity:1;isolation:auto;mix-blend-mode:normal;color-interpolation:sRGB;color-interpolation-filters:linearRGB;solid-color:#000000;solid-opacity:1;fill:#000000;fill-opacity:1;fill-rule:nonzero;stroke:none;stroke-width:0.265;stroke-linecap:round;stroke-linejoin:round;stroke-miterlimit:4;stroke-dasharray:none;stroke-dashoffset:0;stroke-opacity:1;color-rendering:auto;image-rendering:auto;shape-rendering:auto;text-rendering:auto;enable-background:accumulate"
       d="m 3.1308639,293.53048 a 0.13255838,0.13248789 0 0 0 -0.059425,0.018 c 0,0 -0.2987675,0.16926 -0.4456113,0.24696 -0.1458118,0.0772 -0.3709193,0.13102 -0.5288227,0.27229 -0.1236398,0.11075 -0.1991518,0.27447 -0.193331,0.45156 0.00503,0.15245 0.069321,0.29088 0.1700742,0.39164 l 0.014552,0.0146 c 0.1009386,0.10086 0.2397655,0.16507 0.3923507,0.16997 0.1772972,0.006 0.340995,-0.0694 0.4518025,-0.19323 0.074269,-0.083 0.1123156,-0.18074 0.150442,-0.27384 A 0.13261385,0.13254332 0 1 0 2.837362,294.5282 c -0.036962,0.0902 -0.073766,0.16545 -0.1023673,0.19738 -0.060272,0.0673 -0.1479285,0.10859 -0.2455598,0.10539 -0.083926,-0.003 -0.1583266,-0.0374 -0.2134923,-0.0925 l -0.014552,-0.014 c -0.055166,-0.0552 -0.089905,-0.12964 -0.092525,-0.21341 -0.00318,-0.0976 0.037544,-0.18516 0.1049337,-0.2454 0.071993,-0.0644 0.2904067,-0.13727 0.4761177,-0.23559 0.1558396,-0.0825 0.4523052,-0.25061 0.4523052,-0.25061 a 0.13255838,0.13248789 0 0 0 -0.071358,-0.24852 z"
       id="path16" />
    <path
       style="color:#000000;font-style:normal;font-variant:normal;font-weight:normal;font-stretch:normal;font-size:medium;line-height:normal;font-family:sans-serif;font-variant-ligatures:normal;font-variant-position:normal;font-variant-caps:normal;font-variant-numeric:normal;font-variant-alternates:normal;font-feature-settings:normal;text-indent:0;text-align:start;text-decoration:none;text-decoration-line:none;text-decoration-style:solid;text-decoration-color:#000000;letter-spacing:normal;word-spacing:normal;text-transform:none;writing-mode:lr-tb;direction:ltr;text-orientation:mixed;dominant-baseline:auto;baseline-shift:baseline;text-anchor:start;white-space:normal;shape-padding:0;clip-rule:nonzero;display:inline;overflow:visible;visibility:visible;opacity:1;isolation:auto;mix-blend-mode:normal;color-interpolation:sRGB;color-interpolation-filters:linearRGB;solid-color:#000000;solid-opacity:1;fill:#000000;fill-opacity:1;fill-rule:evenodd;stroke:none;stroke-width:0.264583px;stroke-linecap:round;stroke-linejoin:round;stroke-miterlimit:4;stroke-dasharray:none;stroke-dashoffset:0;stroke-opacity:1;color-rendering:auto;image-rendering:auto;shape-rendering:auto;text-rendering:auto;enable-background:accumulate"
       d="m 3.4922318,289.58991 a 0.13234996,0.13227958 0 0 0 -0.1364721,0.11364 l -0.029977,0.18962 c -0.081809,0.51769 0.08927,1.04352 0.460084,1.4141 l 0.2553494,0.25574 A 0.13234996,0.13227958 0 1 0 4.2283555,291.376 L 3.9729797,291.12026 C 3.6618826,290.80935 3.5181874,290.36884 3.5868203,289.9345 l 0.030004,-0.1896 a 0.13234996,0.13227958 0 0 0 -0.1245925,-0.15499 z"
       id="path18" />
    <path
       d="m 3.1975654,294.19464 a 0.13233672,0.13226635 0 0 1 -0.1323182,0.13226 0.13233672,0.13226635 0 0 1 -0.1323446,-0.13226 0.13233672,0.13226635 0 0 1 0.1323446,-0.13227 0.13233672,0.13226635 0 0 1 0.1323182,0.13227 z"
       style="display:inline;opacity:1;fill:#000000;fill-opacity:1;stroke:none;stroke-width:0.264583;stroke-linecap:round;stroke-linejoin:round;stroke-miterlimit:4;stroke-dasharray:none;stroke-opacity:1"
       id="path20" />
    <path
       d="m 5.4472909,291.28478 a 0.13233672,0.13226635 0 0 1 -0.1323181,0.13229 0.13233672,0.13226635 0 0 1 -0.1323446,-0.13229 0.13233672,0.13226635 0 0 1 0.1323446,-0.13227 0.13233672,0.13226635 0 0 1 0.1323181,0.13227 z"
       style="display:inline;opacity:1;fill:#000000;fill-opacity:1;stroke:none;stroke-width:0.264583;stroke-linecap:round;stroke-linejoin:round;stroke-miterlimit:4;stroke-dasharray:none;stroke-opacity:1"
       id="path22" />
    <path
       style="color:#000000;font-style:normal;font-variant:normal;font-weight:normal;font-stretch:normal;font-size:medium;line-height:normal;font-family:sans-serif;font-variant-ligatures:normal;font-variant-position:normal;font-variant-caps:normal;font-variant-numeric:normal;font-variant-alternates:normal;font-feature-settings:normal;text-indent:0;text-align:start;text-decoration:none;text-decoration-line:none;text-decoration-style:solid;text-decoration-color:#000000;letter-spacing:normal;word-spacing:normal;text-transform:none;writing-mode:lr-tb;direction:ltr;text-orientation:mixed;dominant-baseline:auto;baseline-shift:baseline;text-anchor:start;white-space:normal;shape-padding:0;clip-rule:nonzero;display:inline;overflow:visible;visibility:visible;opacity:1;isolation:auto;mix-blend-mode:normal;color-interpolation:sRGB;color-interpolation-filters:linearRGB;solid-color:#000000;solid-opacity:1;fill:#000000;fill-opacity:1;fill-rule:nonzero;stroke:none;stroke-width:0.264583;stroke-linecap:butt;stroke-linejoin:miter;stroke-miterlimit:4;stroke-dasharray:none;stroke-dashoffset:0;stroke-opacity:1;color-rendering:auto;image-rendering:auto;shape-rendering:auto;text-rendering:auto;enable-background:accumulate"
       d="m 3.4363783,291.54753 c -0.1018646,0 -0.2037027,0.0383 -0.28067,0.11523 l -0.024871,0.0249 c -0.1538816,0.1538 -0.1538816,0.40727 0,0.5611 l 0.1871663,-0.18703 c -0.053446,-0.0534 -0.053446,-0.13362 0,-0.18704 l 0.024871,-0.0249 c 0.053499,-0.0534 0.133694,-0.0534 0.1871663,0 l 0.1871133,-0.187 c -0.076941,-0.0769 -0.1788054,-0.11523 -0.2807229,-0.11523 z"
       id="path24" />
    <path
       style="color:#000000;font-style:normal;font-variant:normal;font-weight:normal;font-stretch:normal;font-size:medium;line-height:normal;font-family:sans-serif;font-variant-ligatures:normal;font-variant-position:normal;font-variant-caps:normal;font-variant-numeric:normal;font-variant-alternates:normal;font-feature-settings:normal;text-indent:0;text-align:start;text-decoration:none;text-decoration-line:none;text-decoration-style:solid;text-decoration-color:#000000;letter-spacing:normal;word-spacing:normal;text-transform:none;writing-mode:lr-tb;direction:ltr;text-orientation:mixed;dominant-baseline:auto;baseline-shift:baseline;text-anchor:start;white-space:normal;shape-padding:0;clip-rule:nonzero;display:inline;overflow:visible;visibility:visible;opacity:1;isolation:auto;mix-blend-mode:normal;color-interpolation:sRGB;color-interpolation-filters:linearRGB;solid-color:#000000;solid-opacity:1;fill:#000000;fill-opacity:1;fill-rule:nonzero;stroke:none;stroke-width:0.264583;stroke-linecap:butt;stroke-linejoin:miter;stroke-miterlimit:4;stroke-dasharray:none;stroke-dashoffset:0;stroke-opacity:1;color-rendering:auto;image-rendering:auto;shape-rendering:auto;text-rendering:auto;enable-background:accumulate"
       d="m 5.3387324,293.28301 -0.1871398,0.18704 c 0.053499,0.0534 0.053472,0.13361 0,0.18703 l -0.0254,0.0254 c -0.053446,0.0534 -0.1336939,0.0534 -0.1871133,0 l -0.1871663,0.18704 c 0.1539082,0.15385 0.4080405,0.15385 0.5619486,0 l 0.024871,-0.0249 c 0.1539346,-0.15381 0.1539346,-0.40778 -2e-7,-0.56161 z"
       id="path26" />
  </g>
  <path
     style="opacity:1;fill:#d3bc5f;stroke-width:0.38741"
     d="m 12.161779,61.214559 c -3.5735698,-0.944237 -7.7367378,-4.719985 -8.8693298,-8.04396 -1.009952,-2.964045 -0.821856,-6.500012 0.49166,-9.242584 1.786588,-3.730328 3.478721,-4.969921 11.7676668,-8.620546 4.911044,-2.162927 6.499061,-2.477277 5.316531,-1.052418 -0.735553,0.886288 -2.991796,2.170154 -6.933616,3.945421 -5.3388338,2.40444 -7.2278008,4.578601 -7.6658898,8.82328 -0.939207,9.100042 10.4858988,14.404672 16.8601608,7.828103 0.686599,-0.708392 1.986556,-2.963406 2.888792,-5.011143 1.972417,-4.476642 4.022756,-7.559437 4.626301,-6.955892 0.753276,0.753275 -4.618992,12.264745 -6.904362,14.794377 -2.621124,2.901271 -7.889419,4.509966 -11.577914,3.535362 z"
     id="path42"
     inkscape:connector-curvature="0" />
  <path
     style="opacity:1;fill:#d3bc5f;stroke-width:0.38741"
     d="M 13.771541,54.791519 C 8.7116852,52.987432 7.2193952,46.464003 11.048687,42.888774 c 0.612201,-0.571583 2.771215,-1.751743 4.797811,-2.622579 2.026595,-0.870836 4.577521,-2.259074 5.668723,-3.084974 l 1.984005,-1.501636 2.425441,2.447194 2.425443,2.447194 -1.448333,1.973023 c -0.796582,1.085162 -2.121874,3.496 -2.945092,5.357417 -1.832037,4.142501 -3.07979,5.76462 -5.16129,6.709846 -1.887519,0.857136 -3.006314,0.896612 -5.023854,0.17726 z m 6.575303,-3.737615 c 2.223398,-2.076994 2.604016,-4.607723 0.692994,-4.607723 -0.704376,0 -1.116688,0.352304 -1.601045,1.368008 -1.01932,2.137538 -3.104197,2.347329 -4.516132,0.454436 -1.256942,-1.685107 -0.40641,-2.747773 4.020851,-5.023697 5.057957,-2.600149 6.018394,-3.605595 4.315004,-4.517222 -0.566362,-0.303108 -1.616444,0.07291 -4.93948,1.768749 -2.321113,1.18453 -4.614418,2.517024 -5.096232,2.961099 -1.686176,1.554099 -1.887484,4.966606 -0.399333,6.769354 1.837229,2.22562 5.58514,2.637604 7.523373,0.826996 z m 2.736233,-6.016316 c 0.295553,-0.770198 -0.320825,-1.840376 -1.154576,-2.004618 -0.874844,-0.172338 -1.631068,1.357124 -1.029441,2.08204 0.622211,0.749722 1.883775,0.704998 2.184017,-0.07741 z"
     id="path44"
     inkscape:connector-curvature="0" />
  <path
     style="opacity:1;fill:#d3bc5f;stroke-width:0.38741"
     d="m 27.683088,36.011036 c -6.333555,-6.340141 -7.259972,-7.418124 -6.82527,-7.941908 0.276636,-0.333325 0.701266,-0.606048 0.943622,-0.606048 0.242357,0 3.715368,3.278123 7.717801,7.284719 5.453329,5.459001 7.213946,7.449425 7.024963,7.941908 -0.138707,0.361453 -0.54034,0.65719 -0.892531,0.65719 -0.352192,0 -3.938051,-3.301138 -7.968585,-7.335861 z"
     id="path46"
     inkscape:connector-curvature="0" />
  <path
     style="opacity:1;fill:#d3bc5f;stroke-width:0.38741"
     d="m 31.309046,32.663556 c -6.902522,-6.909338 -7.457129,-7.565094 -6.883414,-8.13881 0.468709,-0.468709 0.803956,-0.525346 1.347158,-0.227595 0.397741,0.218019 3.822679,3.519908 7.610975,7.337531 6.757035,6.809346 7.440608,7.773181 5.925309,8.354655 -0.27607,0.105938 -3.792799,-3.114398 -8.000028,-7.325781 z"
     id="path48"
     inkscape:connector-curvature="0" />
  <path
     style="opacity:1;fill:#d3bc5f;stroke-width:0.38741"
     d="m 34.763296,29.522005 c -4.014349,-3.994193 -7.298816,-7.464769 -7.298816,-7.71239 0,-0.247618 0.27274,-0.676576 0.606099,-0.953237 0.5239,-0.434798 1.622571,0.512453 8.100992,6.984485 4.199912,4.19577 7.411787,7.704073 7.305857,7.980124 -0.585815,1.526596 -1.548315,0.83085 -8.714132,-6.298982 z"
     id="path52"
     inkscape:connector-curvature="0" />
  <path
     style="opacity:1;fill:#d3bc5f;stroke-width:0.38741"
     d="m 38.036144,25.816591 -2.384193,-2.421314 1.32759,-1.54964 c 0.730174,-0.852303 2.069599,-3.260103 2.976499,-5.350668 1.869802,-4.31022 3.341724,-6.321895 5.191036,-7.0945868 5.291838,-2.211071 11.336367,2.8333748 9.887269,8.2513938 -0.828609,3.098073 -1.730198,3.883309 -7.322241,6.377274 -1.754879,0.78265 -4.044585,2.049817 -5.088236,2.815927 -1.04365,0.76611 -1.966393,1.392927 -2.050539,1.392927 -0.08414,0 -1.225879,-1.089591 -2.537185,-2.421313 z m 8.086884,-2.427269 c 2.371378,-1.220438 4.575291,-2.654268 5.17461,-3.366517 0.915628,-1.088162 1.022941,-1.493903 0.873081,-3.301028 -0.132814,-1.601546 -0.418316,-2.318659 -1.282057,-3.22021 -2.618705,-2.733339 -6.804205,-2.119518 -8.548554,1.253681 -0.77547,1.499594 -0.675703,2.540349 0.272366,2.841254 0.886446,0.281347 1.361143,-0.04841 2.045376,-1.420842 0.244749,-0.490916 0.913908,-1.155767 1.487018,-1.477447 0.960685,-0.539219 1.126565,-0.522023 2.125153,0.220299 1.341885,0.997519 1.661014,2.939294 0.622208,3.785888 -0.385718,0.314349 -2.338555,1.411337 -4.339637,2.437753 -3.772765,1.935166 -4.596728,2.673737 -4.183686,3.750106 0.388285,1.011856 1.361823,0.757574 5.754122,-1.502937 z M 42.49758,19.280109 c 0.125489,-1.082088 -0.632103,-1.652268 -1.66745,-1.254966 -0.594238,0.228033 -0.801089,1.728038 -0.306501,2.222626 0.631377,0.631377 1.858261,0.02998 1.973951,-0.96766 z"
     id="path54"
     inkscape:connector-curvature="0" />
  <path
     style="opacity:1;fill:#d3bc5f;stroke-width:0.38741"
     d="m 42.775866,30.576418 c -0.382107,-0.618261 3.254206,-2.982228 6.950796,-4.518711 4.112359,-1.709297 6.452699,-3.682303 7.4451,-6.276539 C 59.802219,12.90489 54.254865,5.5212322 47.019304,6.2680082 c -4.222112,0.43576 -6.47659,2.394097 -8.749216,7.5999438 -1.543178,3.534919 -3.394676,6.693011 -4.224647,7.205961 -1.12619,0.696025 -0.896371,-0.627442 0.757527,-4.362392 4.174194,-9.4264628 5.308569,-11.0298298 9.136971,-12.9145458 2.24727,-1.106328 2.726694,-1.199573 5.48745,-1.067276 3.604617,0.172736 5.764824,1.097889 8.214153,3.517882 5.907991,5.8372278 4.867615,15.0278968 -2.167873,19.1509668 -1.817357,1.065042 -11.641614,5.551227 -12.156583,5.551227 -0.170758,0 -0.414307,-0.16801 -0.54122,-0.373357 z"
     id="path56"
     inkscape:connector-curvature="0" />
</svg>
