<?xml version="1.0" encoding="UTF-8" standalone="no"?>
<svg
   xmlns:dc="http://purl.org/dc/elements/1.1/"
   xmlns:cc="http://creativecommons.org/ns#"
   xmlns:rdf="http://www.w3.org/1999/02/22-rdf-syntax-ns#"
   xmlns:svg="http://www.w3.org/2000/svg"
   xmlns="http://www.w3.org/2000/svg"
   xmlns:sodipodi="http://sodipodi.sourceforge.net/DTD/sodipodi-0.dtd"
   xmlns:inkscape="http://www.inkscape.org/namespaces/inkscape"
   viewBox="0 0 8.4666665 10.583333625"
   version="1.1"
   x="0px"
   y="0px"
   id="svg34"
   sodipodi:docname="rope.svg"
   inkscape:version="0.92.3 (2405546, 2018-03-11)">
  <metadata
     id="metadata40">
    <rdf:RDF>
      <cc:Work
         rdf:about="">
        <dc:format>image/svg+xml</dc:format>
        <dc:type
           rdf:resource="http://purl.org/dc/dcmitype/StillImage" />
        <dc:title></dc:title>
      </cc:Work>
    </rdf:RDF>
  </metadata>
  <defs
     id="defs38" />
  <sodipodi:namedview
     pagecolor="#ffffff"
     bordercolor="#666666"
     borderopacity="1"
     objecttolerance="10"
     gridtolerance="10"
     guidetolerance="10"
     inkscape:pageopacity="0"
     inkscape:pageshadow="2"
     inkscape:window-width="1920"
     inkscape:window-height="1017"
     id="namedview36"
     showgrid="false"
     inkscape:zoom="22.299211"
     inkscape:cx="4.2333331"
     inkscape:cy="8.8792378"
     inkscape:window-x="-8"
     inkscape:window-y="-8"
     inkscape:window-maximized="1"
     inkscape:current-layer="svg34" />
  <g
     transform="translate(0,-288.53332)"
     id="g28">
    <path
       style="color:#000000;font-style:normal;font-variant:normal;font-weight:normal;font-stretch:normal;font-size:medium;line-height:normal;font-family:sans-serif;font-variant-ligatures:normal;font-variant-position:normal;font-variant-caps:normal;font-variant-numeric:normal;font-variant-alternates:normal;font-feature-settings:normal;text-indent:0;text-align:start;text-decoration:none;text-decoration-line:none;text-decoration-style:solid;text-decoration-color:#000000;letter-spacing:normal;word-spacing:normal;text-transform:none;writing-mode:lr-tb;direction:ltr;text-orientation:mixed;dominant-baseline:auto;baseline-shift:baseline;text-anchor:start;white-space:normal;shape-padding:0;clip-rule:nonzero;display:inline;overflow:visible;visibility:visible;opacity:1;isolation:auto;mix-blend-mode:normal;color-interpolation:sRGB;color-interpolation-filters:linearRGB;solid-color:#000000;solid-opacity:1;fill:#000000;fill-opacity:1;fill-rule:nonzero;stroke:none;stroke-width:0.26458332;stroke-linecap:butt;stroke-linejoin:miter;stroke-miterlimit:4;stroke-dasharray:none;stroke-dashoffset:0;stroke-opacity:1;color-rendering:auto;image-rendering:auto;shape-rendering:auto;text-rendering:auto;enable-background:accumulate"
       d="m 3.0373072,291.94642 c -0.1018646,0 -0.2037027,0.0383 -0.28067,0.1152 l -0.024871,0.0249 c -0.1538817,0.15385 -0.1538817,0.40727 0,0.5611 l 1.6211285,1.62079 c 0.1539081,0.15382 0.4074848,0.1538 0.5613929,0 l 0.0254,-0.0249 c 0.1538817,-0.15383 0.1539082,-0.40728 0,-0.56108 l -1.6216312,-1.62078 c -0.076967,-0.0769 -0.1788054,-0.1152 -0.2807229,-0.1152 z m -0.093557,0.30223 c 0.053499,-0.0534 0.1336675,-0.0534 0.1871133,0 l 1.6216577,1.62079 c 0.053446,0.0534 0.05297,0.13359 0,0.187 l -0.024871,0.0249 c -0.053499,0.0534 -0.1336939,0.0534 -0.1871133,0 l -1.6211285,-1.62079 c -0.053472,-0.0535 -0.053472,-0.13359 0,-0.18703 z"
       id="path2" />
    <path
       style="color:#000000;font-style:normal;font-variant:normal;font-weight:normal;font-stretch:normal;font-size:medium;line-height:normal;font-family:sans-serif;font-variant-ligatures:normal;font-variant-position:normal;font-variant-caps:normal;font-variant-numeric:normal;font-variant-alternates:normal;font-feature-settings:normal;text-indent:0;text-align:start;text-decoration:none;text-decoration-line:none;text-decoration-style:solid;text-decoration-color:#000000;letter-spacing:normal;word-spacing:normal;text-transform:none;writing-mode:lr-tb;direction:ltr;text-orientation:mixed;dominant-baseline:auto;baseline-shift:baseline;text-anchor:start;white-space:normal;shape-padding:0;clip-rule:nonzero;display:inline;overflow:visible;visibility:visible;opacity:1;isolation:auto;mix-blend-mode:normal;color-interpolation:sRGB;color-interpolation-filters:linearRGB;solid-color:#000000;solid-opacity:1;fill:#000000;fill-opacity:1;fill-rule:nonzero;stroke:none;stroke-width:0.26458332;stroke-linecap:butt;stroke-linejoin:miter;stroke-miterlimit:4;stroke-dasharray:none;stroke-dashoffset:0;stroke-opacity:1;color-rendering:auto;image-rendering:auto;shape-rendering:auto;text-rendering:auto;enable-background:accumulate"
       d="m 3.8355022,291.14814 c -0.1019175,0 -0.2037821,0.0388 -0.2807229,0.11576 l -0.024871,0.0249 c -0.1539082,0.15383 -0.1539082,0.4073 0,0.5611 l 1.6216047,1.62081 c 0.1539082,0.15381 0.4075113,0.15381 0.5614194,0 l 0.024871,-0.0254 c 0.1539346,-0.15383 0.1539346,-0.4073 0,-0.5611 l -1.6216576,-1.62025 c -0.076941,-0.0769 -0.1788055,-0.11576 -0.28067,-0.11576 z m -0.09361,0.30277 c 0.053472,-0.0534 0.133694,-0.0534 0.1871663,0 l 1.6216312,1.62028 c 0.053446,0.0534 0.053446,0.13361 0,0.18701 l -0.024871,0.0249 c -0.053446,0.0534 -0.1336411,0.0534 -0.1871398,0 l -1.6216312,-1.62026 c -0.053446,-0.0534 -0.053446,-0.13361 0,-0.18703 z"
       id="path4" />
    <path
       style="color:#000000;font-style:normal;font-variant:normal;font-weight:normal;font-stretch:normal;font-size:medium;line-height:normal;font-family:sans-serif;font-variant-ligatures:normal;font-variant-position:normal;font-variant-caps:normal;font-variant-numeric:normal;font-variant-alternates:normal;font-feature-settings:normal;text-indent:0;text-align:start;text-decoration:none;text-decoration-line:none;text-decoration-style:solid;text-decoration-color:#000000;letter-spacing:normal;word-spacing:normal;text-transform:none;writing-mode:lr-tb;direction:ltr;text-orientation:mixed;dominant-baseline:auto;baseline-shift:baseline;text-anchor:start;white-space:normal;shape-padding:0;clip-rule:nonzero;display:inline;overflow:visible;visibility:visible;opacity:1;isolation:auto;mix-blend-mode:normal;color-interpolation:sRGB;color-interpolation-filters:linearRGB;solid-color:#000000;solid-opacity:1;fill:#000000;fill-opacity:1;fill-rule:nonzero;stroke:none;stroke-width:0.26458332;stroke-linecap:butt;stroke-linejoin:miter;stroke-miterlimit:4;stroke-dasharray:none;stroke-dashoffset:0;stroke-opacity:1;color-rendering:auto;image-rendering:auto;shape-rendering:auto;text-rendering:auto;enable-background:accumulate"
       d="m 6.2599322,289.06341 c -0.515276,-0.0169 -0.9882452,0.2008 -1.3094229,0.55957 -0.1995752,0.22289 -0.3507581,0.54764 -0.4931304,0.87622 -0.1424252,0.32864 -0.2738967,0.66223 -0.4006586,0.88196 l -0.00265,0.003 0.2269331,0.13586 0.00423,-0.006 v 0 c 0.1443566,-0.25025 0.2737908,-0.58579 0.4135702,-0.90832 0.1397529,-0.32253 0.2918618,-0.6309 0.4481512,-0.80547 0.2707746,-0.30244 0.6675173,-0.48548 1.1031802,-0.4712 0.3747558,0.0122 0.7113323,0.16791 0.9584002,0.4149 v 0 l 0.049107,0.0496 c 0.2470943,0.24696 0.4034895,0.58325 0.4156075,0.9579 0.014287,0.4354 -0.1693863,0.83195 -0.4719638,1.10254 -0.1746514,0.15621 -0.4826794,0.30827 -0.8054181,0.44797 -0.3226858,0.1397 -0.6589183,0.26958 -0.9092671,0.41383 v 0 l -0.00609,0.004 0.1359165,0.2268 0.0037,-0.003 v 0 0 c 0.2198688,-0.12641 0.5518679,-0.25685 0.8798454,-0.39886 0.3287713,-0.14234 0.6542352,-0.29397 0.8772525,-0.49342 0.3589073,-0.32099 0.576289,-0.79317 0.5593292,-1.3082 -0.014288,-0.44307 -0.1997869,-0.84395 -0.4926542,-1.13665 l -0.049107,-0.0496 v 0 C 7.102048,289.26447 6.7012307,289.07886 6.2580801,289.0646 Z"
       id="path6" />
    <path
       style="color:#000000;font-style:normal;font-variant:normal;font-weight:normal;font-stretch:normal;font-size:medium;line-height:normal;font-family:sans-serif;font-variant-ligatures:normal;font-variant-position:normal;font-variant-caps:normal;font-variant-numeric:normal;font-variant-alternates:normal;font-feature-settings:normal;text-indent:0;text-align:start;text-decoration:none;text-decoration-line:none;text-decoration-style:solid;text-decoration-color:#000000;letter-spacing:normal;word-spacing:normal;text-transform:none;writing-mode:lr-tb;direction:ltr;text-orientation:mixed;dominant-baseline:auto;baseline-shift:baseline;text-anchor:start;white-space:normal;shape-padding:0;clip-rule:nonzero;display:inline;overflow:visible;visibility:visible;opacity:1;isolation:auto;mix-blend-mode:normal;color-interpolation:sRGB;color-interpolation-filters:linearRGB;solid-color:#000000;solid-opacity:1;fill:#000000;fill-opacity:1;fill-rule:nonzero;stroke:none;stroke-width:0.26458332;stroke-linecap:butt;stroke-linejoin:miter;stroke-miterlimit:4;stroke-dasharray:none;stroke-dashoffset:0;stroke-opacity:1;color-rendering:auto;image-rendering:auto;shape-rendering:auto;text-rendering:auto;enable-background:accumulate"
       d="m 6.1110511,289.79242 c -0.3373172,-0.0111 -0.6472237,0.13131 -0.8575939,0.36632 -0.1337469,0.14938 -0.2164027,0.34745 -0.298794,0.54715 -0.082418,0.19968 -0.1625335,0.40251 -0.2625989,0.55542 -0.081624,0.12454 -0.1953948,0.24053 -0.3081073,0.37097 l 0.2005542,0.17309 c 0.1050925,-0.12158 0.2278062,-0.24519 0.3287712,-0.39939 0.1221581,-0.18664 0.2053696,-0.40296 0.2864115,-0.59933 0.081015,-0.1964 0.1617927,-0.3719 0.2506927,-0.47123 0.1599935,-0.17867 0.3942027,-0.28696 0.6518804,-0.27847 0.2217208,0.007 0.4205023,0.0995 0.5665523,0.24543 l 0.031009,0.0304 c 0.14605,0.146 0.2384425,0.34473 0.2455863,0.56629 0.00847,0.25754 -0.09988,0.49162 -0.2786592,0.65154 -0.099351,0.0888 -0.2754841,0.17007 -0.4719637,0.25108 -0.1964796,0.081 -0.4124061,0.16365 -0.599149,0.28573 -0.1533789,0.10028 -0.2783946,0.22161 -0.4011348,0.33012 l 0.1757627,0.19788 c 0.1284552,-0.11356 0.2445015,-0.22426 0.3701257,-0.30639 0.1530085,-0.10001 0.3559175,-0.1806 0.5557043,-0.26297 0.1998398,-0.0823 0.3974571,-0.16443 0.5469202,-0.2981 0.2351352,-0.21029 0.3776398,-0.52004 0.3665273,-0.85717 -0.00926,-0.29009 -0.13081,-0.55335 -0.3225535,-0.74502 l -0.031036,-0.0305 c -0.19177,-0.19169 -0.45466,-0.31355 -0.744908,-0.32292 z"
       id="path8" />
    <path
       style="color:#000000;font-style:normal;font-variant:normal;font-weight:normal;font-stretch:normal;font-size:medium;line-height:normal;font-family:sans-serif;font-variant-ligatures:normal;font-variant-position:normal;font-variant-caps:normal;font-variant-numeric:normal;font-variant-alternates:normal;font-feature-settings:normal;text-indent:0;text-align:start;text-decoration:none;text-decoration-line:none;text-decoration-style:solid;text-decoration-color:#000000;letter-spacing:normal;word-spacing:normal;text-transform:none;writing-mode:lr-tb;direction:ltr;text-orientation:mixed;dominant-baseline:auto;baseline-shift:baseline;text-anchor:start;white-space:normal;shape-padding:0;clip-rule:nonzero;display:inline;overflow:visible;visibility:visible;opacity:1;isolation:auto;mix-blend-mode:normal;color-interpolation:sRGB;color-interpolation-filters:linearRGB;solid-color:#000000;solid-opacity:1;fill:#000000;fill-opacity:1;fill-rule:nonzero;stroke:none;stroke-width:0.26499999;stroke-linecap:round;stroke-linejoin:round;stroke-miterlimit:4;stroke-dasharray:none;stroke-dashoffset:0;stroke-opacity:1;color-rendering:auto;image-rendering:auto;shape-rendering:auto;text-rendering:auto;enable-background:accumulate"
       d="m 5.9885226,290.43671 c -0.1772973,-0.006 -0.3409685,0.069 -0.4518025,0.19269 -0.074295,0.083 -0.1117864,0.18079 -0.1499129,0.27385 a 0.13255838,0.13248789 0 1 0 0.2450571,0.10025 c 0.036936,-0.0902 0.073766,-0.16545 0.1023408,-0.19738 0.060325,-0.0674 0.1484842,-0.10806 0.2460625,-0.10488 0.083926,0.003 0.1583267,0.0374 0.2134923,0.0925 l 0.014023,0.0146 c 0.055192,0.0551 0.089905,0.12965 0.092551,0.21339 0.00318,0.0975 -0.037544,0.18513 -0.1049338,0.24542 -0.071993,0.0643 -0.2899039,0.13674 -0.4755885,0.23509 -0.1558396,0.0825 -0.4528344,0.25109 -0.4528344,0.25109 a 0.13255838,0.13248789 0 1 0 0.1307835,0.23042 c 0,0 0.2992438,-0.1692 0.4460875,-0.24696 0.1458119,-0.0772 0.3704167,-0.13107 0.52832,-0.27228 0.123825,-0.11076 0.1991519,-0.27435 0.1933575,-0.45157 -0.00476,-0.15263 -0.069136,-0.29128 -0.1701006,-0.39216 l -0.014552,-0.0145 c -0.1009385,-0.10089 -0.2397654,-0.16452 -0.3923506,-0.16944 z"
       id="path10" />
    <path
       style="color:#000000;font-style:normal;font-variant:normal;font-weight:normal;font-stretch:normal;font-size:medium;line-height:normal;font-family:sans-serif;font-variant-ligatures:normal;font-variant-position:normal;font-variant-caps:normal;font-variant-numeric:normal;font-variant-alternates:normal;font-feature-settings:normal;text-indent:0;text-align:start;text-decoration:none;text-decoration-line:none;text-decoration-style:solid;text-decoration-color:#000000;letter-spacing:normal;word-spacing:normal;text-transform:none;writing-mode:lr-tb;direction:ltr;text-orientation:mixed;dominant-baseline:auto;baseline-shift:baseline;text-anchor:start;white-space:normal;shape-padding:0;clip-rule:nonzero;display:inline;overflow:visible;visibility:visible;opacity:1;isolation:auto;mix-blend-mode:normal;color-interpolation:sRGB;color-interpolation-filters:linearRGB;solid-color:#000000;solid-opacity:1;fill:#000000;fill-opacity:1;fill-rule:nonzero;stroke:none;stroke-width:0.26458332;stroke-linecap:butt;stroke-linejoin:miter;stroke-miterlimit:4;stroke-dasharray:none;stroke-dashoffset:0;stroke-opacity:1;color-rendering:auto;image-rendering:auto;shape-rendering:auto;text-rendering:auto;enable-background:accumulate"
       d="m 2.8522576,292.58655 -0.00318,0.003 c -0.2198422,0.12671 -0.5536406,0.25807 -0.8824383,0.40042 -0.3287712,0.14234 -0.653706,0.29395 -0.8767233,0.49342 -0.35890728,0.32099 -0.5767652,0.79322 -0.55983187,1.30821 0.0142875,0.44307 0.19981334,0.84396 0.49262767,1.13665 l 0.049636,0.0491 c 0.2928408,0.29266 0.6939491,0.47858 1.137285,0.49289 0.5152495,0.0169 0.987716,-0.20087 1.3088672,-0.55956 0.1995752,-0.22289 0.3512873,-0.54764 0.4936861,-0.87628 0.1420812,-0.32782 0.2725737,-0.66013 0.399071,-0.87984 v 0 c 2.117e-4,0 0,0 0,-0.003 l 0.00265,-0.003 -0.2269595,-0.1364 -0.0037,0.006 v 0 c -0.1443567,0.25024 -0.2742935,0.58626 -0.4140465,0.90882 -0.1398058,0.32255 -0.2919148,0.63042 -0.4482041,0.80497 -0.2707746,0.30239 -0.6669881,0.48601 -1.1026246,0.47172 v 0 c -0.3748352,-0.0122 -0.7113058,-0.16846 -0.9584266,-0.41542 l -0.049609,-0.0491 c -0.24706794,-0.24696 -0.40296044,-0.58378 -0.41510481,-0.9584 -0.0142875,-0.43545 0.16888354,-0.83198 0.47143461,-1.10257 0.1746779,-0.15621 0.483235,-0.30774 0.8059208,-0.44744 0.3227123,-0.1397 0.6584156,-0.26956 0.9087908,-0.41386 v 0 l 0.00635,-0.004 z"
       id="path12" />
    <path
       style="color:#000000;font-style:normal;font-variant:normal;font-weight:normal;font-stretch:normal;font-size:medium;line-height:normal;font-family:sans-serif;font-variant-ligatures:normal;font-variant-position:normal;font-variant-caps:normal;font-variant-numeric:normal;font-variant-alternates:normal;font-feature-settings:normal;text-indent:0;text-align:start;text-decoration:none;text-decoration-line:none;text-decoration-style:solid;text-decoration-color:#000000;letter-spacing:normal;word-spacing:normal;text-transform:none;writing-mode:lr-tb;direction:ltr;text-orientation:mixed;dominant-baseline:auto;baseline-shift:baseline;text-anchor:start;white-space:normal;shape-padding:0;clip-rule:nonzero;display:inline;overflow:visible;visibility:visible;opacity:1;isolation:auto;mix-blend-mode:normal;color-interpolation:sRGB;color-interpolation-filters:linearRGB;solid-color:#000000;solid-opacity:1;fill:#000000;fill-opacity:1;fill-rule:nonzero;stroke:none;stroke-width:0.26458332;stroke-linecap:butt;stroke-linejoin:miter;stroke-miterlimit:4;stroke-dasharray:none;stroke-dashoffset:0;stroke-opacity:1;color-rendering:auto;image-rendering:auto;shape-rendering:auto;text-rendering:auto;enable-background:accumulate"
       d="m 3.099352,292.9162 c -0.1284552,0.11356 -0.2450041,0.22473 -0.3706548,0.30686 -0.152982,0.10007 -0.3553618,0.18013 -0.5551752,0.26249 -0.1998133,0.0824 -0.3979862,0.16494 -0.5474493,0.29861 -0.2351088,0.21029 -0.3776134,0.52004 -0.3665273,0.85717 0.00926,0.29009 0.1313127,0.5528 0.3231091,0.74451 l 0.030506,0.031 c 0.1917965,0.19169 0.4552156,0.31303 0.7454371,0.32237 0.3370791,0.0109 0.6468004,-0.13142 0.8570912,-0.36629 0.1337204,-0.14938 0.2163498,-0.34695 0.2987675,-0.54663 0.082391,-0.19973 0.1630363,-0.40251 0.2631281,-0.55541 0.081571,-0.12465 0.1947334,-0.24043 0.3075781,-0.37097 l -0.2000514,-0.17309 c -0.105066,0.12155 -0.2283619,0.24513 -0.3293004,0.39939 -0.1221581,0.18661 -0.2048404,0.40243 -0.2858823,0.59883 -0.081015,0.19634 -0.1622954,0.3724 -0.2512219,0.4717 -0.1599406,0.17867 -0.3941762,0.28694 -0.6518539,0.27847 -0.2217209,-0.007 -0.4205023,-0.0994 -0.5665788,-0.2454 l -0.03048,-0.031 c -0.1461029,-0.14602 -0.2384425,-0.3447 -0.2455598,-0.56629 -0.00847,-0.25752 0.099854,-0.49106 0.2786327,-0.65098 0.099378,-0.0888 0.2749815,-0.17013 0.4714346,-0.25109 0.1965061,-0.081 0.4129617,-0.16417 0.5996517,-0.28622 0.1534054,-0.10031 0.2779183,-0.22114 0.4006321,-0.32965 z"
       id="path14" />
    <path
       style="color:#000000;font-style:normal;font-variant:normal;font-weight:normal;font-stretch:normal;font-size:medium;line-height:normal;font-family:sans-serif;font-variant-ligatures:normal;font-variant-position:normal;font-variant-caps:normal;font-variant-numeric:normal;font-variant-alternates:normal;font-feature-settings:normal;text-indent:0;text-align:start;text-decoration:none;text-decoration-line:none;text-decoration-style:solid;text-decoration-color:#000000;letter-spacing:normal;word-spacing:normal;text-transform:none;writing-mode:lr-tb;direction:ltr;text-orientation:mixed;dominant-baseline:auto;baseline-shift:baseline;text-anchor:start;white-space:normal;shape-padding:0;clip-rule:nonzero;display:inline;overflow:visible;visibility:visible;opacity:1;isolation:auto;mix-blend-mode:normal;color-interpolation:sRGB;color-interpolation-filters:linearRGB;solid-color:#000000;solid-opacity:1;fill:#000000;fill-opacity:1;fill-rule:nonzero;stroke:none;stroke-width:0.26499999;stroke-linecap:round;stroke-linejoin:round;stroke-miterlimit:4;stroke-dasharray:none;stroke-dashoffset:0;stroke-opacity:1;color-rendering:auto;image-rendering:auto;shape-rendering:auto;text-rendering:auto;enable-background:accumulate"
       d="m 3.1308639,293.53048 a 0.13255838,0.13248789 0 0 0 -0.059425,0.018 c 0,0 -0.2987675,0.16926 -0.4456113,0.24696 -0.1458118,0.0772 -0.3709193,0.13102 -0.5288227,0.27229 -0.1236398,0.11075 -0.1991518,0.27447 -0.193331,0.45156 0.00503,0.15245 0.069321,0.29088 0.1700742,0.39164 l 0.014552,0.0146 c 0.1009386,0.10086 0.2397655,0.16507 0.3923507,0.16997 0.1772972,0.006 0.340995,-0.0694 0.4518025,-0.19323 0.074269,-0.083 0.1123156,-0.18074 0.150442,-0.27384 A 0.13261385,0.13254332 0 1 0 2.837362,294.5282 c -0.036962,0.0902 -0.073766,0.16545 -0.1023673,0.19738 -0.060272,0.0673 -0.1479285,0.10859 -0.2455598,0.10539 -0.083926,-0.003 -0.1583266,-0.0374 -0.2134923,-0.0925 l -0.014552,-0.014 c -0.055166,-0.0552 -0.089905,-0.12964 -0.092525,-0.21341 -0.00318,-0.0976 0.037544,-0.18516 0.1049337,-0.2454 0.071993,-0.0644 0.2904067,-0.13727 0.4761177,-0.23559 0.1558396,-0.0825 0.4523052,-0.25061 0.4523052,-0.25061 a 0.13255838,0.13248789 0 0 0 -0.071358,-0.24852 z"
       id="path16" />
    <path
       style="color:#000000;font-style:normal;font-variant:normal;font-weight:normal;font-stretch:normal;font-size:medium;line-height:normal;font-family:sans-serif;font-variant-ligatures:normal;font-variant-position:normal;font-variant-caps:normal;font-variant-numeric:normal;font-variant-alternates:normal;font-feature-settings:normal;text-indent:0;text-align:start;text-decoration:none;text-decoration-line:none;text-decoration-style:solid;text-decoration-color:#000000;letter-spacing:normal;word-spacing:normal;text-transform:none;writing-mode:lr-tb;direction:ltr;text-orientation:mixed;dominant-baseline:auto;baseline-shift:baseline;text-anchor:start;white-space:normal;shape-padding:0;clip-rule:nonzero;display:inline;overflow:visible;visibility:visible;opacity:1;isolation:auto;mix-blend-mode:normal;color-interpolation:sRGB;color-interpolation-filters:linearRGB;solid-color:#000000;solid-opacity:1;fill:#000000;fill-opacity:1;fill-rule:evenodd;stroke:none;stroke-width:0.26458332px;stroke-linecap:round;stroke-linejoin:round;stroke-miterlimit:4;stroke-dasharray:none;stroke-dashoffset:0;stroke-opacity:1;color-rendering:auto;image-rendering:auto;shape-rendering:auto;text-rendering:auto;enable-background:accumulate"
       d="m 3.4922318,289.58991 a 0.13234996,0.13227958 0 0 0 -0.1364721,0.11364 l -0.029977,0.18962 c -0.081809,0.51769 0.08927,1.04352 0.460084,1.4141 l 0.2553494,0.25574 A 0.13234996,0.13227958 0 1 0 4.2283555,291.376 L 3.9729797,291.12026 C 3.6618826,290.80935 3.5181874,290.36884 3.5868203,289.9345 l 0.030004,-0.1896 a 0.13234996,0.13227958 0 0 0 -0.1245925,-0.15499 z"
       id="path18" />
    <path
       d="m 3.1975654,294.19464 a 0.13233672,0.13226635 0 0 1 -0.1323182,0.13226 0.13233672,0.13226635 0 0 1 -0.1323446,-0.13226 0.13233672,0.13226635 0 0 1 0.1323446,-0.13227 0.13233672,0.13226635 0 0 1 0.1323182,0.13227 z"
       style="display:inline;opacity:1;fill:#000000;fill-opacity:1;stroke:none;stroke-width:0.26458332;stroke-linecap:round;stroke-linejoin:round;stroke-miterlimit:4;stroke-dasharray:none;stroke-opacity:1"
       id="path20" />
    <path
       d="m 5.4472909,291.28478 a 0.13233672,0.13226635 0 0 1 -0.1323181,0.13229 0.13233672,0.13226635 0 0 1 -0.1323446,-0.13229 0.13233672,0.13226635 0 0 1 0.1323446,-0.13227 0.13233672,0.13226635 0 0 1 0.1323181,0.13227 z"
       style="display:inline;opacity:1;fill:#000000;fill-opacity:1;stroke:none;stroke-width:0.26458332;stroke-linecap:round;stroke-linejoin:round;stroke-miterlimit:4;stroke-dasharray:none;stroke-opacity:1"
       id="path22" />
    <path
       style="color:#000000;font-style:normal;font-variant:normal;font-weight:normal;font-stretch:normal;font-size:medium;line-height:normal;font-family:sans-serif;font-variant-ligatures:normal;font-variant-position:normal;font-variant-caps:normal;font-variant-numeric:normal;font-variant-alternates:normal;font-feature-settings:normal;text-indent:0;text-align:start;text-decoration:none;text-decoration-line:none;text-decoration-style:solid;text-decoration-color:#000000;letter-spacing:normal;word-spacing:normal;text-transform:none;writing-mode:lr-tb;direction:ltr;text-orientation:mixed;dominant-baseline:auto;baseline-shift:baseline;text-anchor:start;white-space:normal;shape-padding:0;clip-rule:nonzero;display:inline;overflow:visible;visibility:visible;opacity:1;isolation:auto;mix-blend-mode:normal;color-interpolation:sRGB;color-interpolation-filters:linearRGB;solid-color:#000000;solid-opacity:1;fill:#000000;fill-opacity:1;fill-rule:nonzero;stroke:none;stroke-width:0.26458332;stroke-linecap:butt;stroke-linejoin:miter;stroke-miterlimit:4;stroke-dasharray:none;stroke-dashoffset:0;stroke-opacity:1;color-rendering:auto;image-rendering:auto;shape-rendering:auto;text-rendering:auto;enable-background:accumulate"
       d="m 3.4363783,291.54753 c -0.1018646,0 -0.2037027,0.0383 -0.28067,0.11523 l -0.024871,0.0249 c -0.1538816,0.1538 -0.1538816,0.40727 0,0.5611 l 0.1871663,-0.18703 c -0.053446,-0.0534 -0.053446,-0.13362 0,-0.18704 l 0.024871,-0.0249 c 0.053499,-0.0534 0.133694,-0.0534 0.1871663,0 l 0.1871133,-0.187 c -0.076941,-0.0769 -0.1788054,-0.11523 -0.2807229,-0.11523 z"
       id="path24" />
    <path
       style="color:#000000;font-style:normal;font-variant:normal;font-weight:normal;font-stretch:normal;font-size:medium;line-height:normal;font-family:sans-serif;font-variant-ligatures:normal;font-variant-position:normal;font-variant-caps:normal;font-variant-numeric:normal;font-variant-alternates:normal;font-feature-settings:normal;text-indent:0;text-align:start;text-decoration:none;text-decoration-line:none;text-decoration-style:solid;text-decoration-color:#000000;letter-spacing:normal;word-spacing:normal;text-transform:none;writing-mode:lr-tb;direction:ltr;text-orientation:mixed;dominant-baseline:auto;baseline-shift:baseline;text-anchor:start;white-space:normal;shape-padding:0;clip-rule:nonzero;display:inline;overflow:visible;visibility:visible;opacity:1;isolation:auto;mix-blend-mode:normal;color-interpolation:sRGB;color-interpolation-filters:linearRGB;solid-color:#000000;solid-opacity:1;fill:#000000;fill-opacity:1;fill-rule:nonzero;stroke:none;stroke-width:0.26458332;stroke-linecap:butt;stroke-linejoin:miter;stroke-miterlimit:4;stroke-dasharray:none;stroke-dashoffset:0;stroke-opacity:1;color-rendering:auto;image-rendering:auto;shape-rendering:auto;text-rendering:auto;enable-background:accumulate"
       d="m 5.3387324,293.28301 -0.1871398,0.18704 c 0.053499,0.0534 0.053472,0.13361 0,0.18703 l -0.0254,0.0254 c -0.053446,0.0534 -0.1336939,0.0534 -0.1871133,0 l -0.1871663,0.18704 c 0.1539082,0.15385 0.4080405,0.15385 0.5619486,0 l 0.024871,-0.0249 c 0.1539346,-0.15381 0.1539346,-0.40778 -2e-7,-0.56161 z"
       id="path26" />
  </g>
  <path
     style="fill:#d3bc5f;stroke-width:0.04484463"
     d="M 1.9328033,7.6110666 C 1.519145,7.5017665 1.0372378,7.0647051 0.90613465,6.6799386 0.78922773,6.3368357 0.81100078,5.9275301 0.96304673,5.6100639 1.1698531,5.17826 1.3657258,5.0347711 2.3252122,4.6121932 2.8936897,4.3618237 3.0775105,4.3254361 2.9406269,4.4903706 2.855483,4.5929628 2.5943117,4.7415766 2.1380267,4.9470726 1.5200303,5.2253983 1.3013731,5.4770682 1.2506621,5.9684107 1.1419442,7.0217855 2.4644566,7.6358225 3.2023088,6.8745522 3.2817861,6.7925524 3.4322625,6.5315234 3.5367008,6.2944877 3.7650177,5.7762944 4.0023546,5.4194456 4.0722179,5.4893089 4.1594133,5.5765042 3.5375468,6.9090137 3.2730039,7.201831 2.9695959,7.5376674 2.3597648,7.7238818 1.9328033,7.6110666 Z"
     id="path42"
     inkscape:connector-curvature="0" />
  <path
     style="fill:#d3bc5f;stroke-width:0.04484463"
     d="M 2.1191412,6.8675681 C 1.5334379,6.6587361 1.360698,5.903617 1.8039575,5.4897666 1.8748227,5.4236031 2.1247393,5.2869937 2.3593277,5.1861902 2.5939161,5.0853866 2.8891983,4.9246912 3.0155104,4.8290892 L 3.2451687,4.6552674 3.5259255,4.9385422 3.8066824,5.221817 3.6390308,5.4502041 C 3.5468225,5.575817 3.3934134,5.8548834 3.2981218,6.0703516 3.0860545,6.5498665 2.941621,6.7376348 2.7006771,6.8470493 2.4821875,6.9462671 2.3526814,6.9508366 2.1191412,6.8675681 Z M 2.8802649,6.4349207 C 3.1376342,6.1944984 3.1816926,5.901554 2.9604824,5.901554 c -0.081535,0 -0.1292621,0.040781 -0.1853288,0.1583537 C 2.6571623,6.3073383 2.4158275,6.3316226 2.2523891,6.1125109 2.1068918,5.9174515 2.2053451,5.7944427 2.7178223,5.5309932 3.3033058,5.2300132 3.4144811,5.1136278 3.2173053,5.0081025 3.1517461,4.9730163 3.030194,5.0165421 2.6455362,5.2128439 2.3768559,5.3499591 2.1113946,5.5042019 2.0556222,5.5556057 1.860439,5.7355003 1.8371366,6.1305149 2.0093975,6.3391918 2.2220658,6.5968183 2.6559049,6.6445075 2.8802649,6.4349207 Z M 3.1969974,5.7385024 C 3.2312091,5.6493482 3.1598603,5.5254698 3.0633495,5.506458 2.962082,5.4865091 2.8745454,5.6635518 2.9441867,5.7474644 c 0.072024,0.086784 0.2180562,0.081607 0.2528107,-0.00896 z"
     id="path44"
     inkscape:connector-curvature="0" />
  <path
     style="fill:#d3bc5f;stroke-width:0.04484463"
     d="M 3.7294714,4.6936345 C 2.9963312,3.9597319 2.8890938,3.8349501 2.9394127,3.7743195 c 0.032022,-0.038584 0.081175,-0.070153 0.1092289,-0.070153 0.028054,0 0.4300722,0.3794589 0.8933735,0.8432421 0.6312497,0.6319063 0.8350498,0.8623077 0.8131741,0.919315 -0.016056,0.04184 -0.062547,0.076073 -0.1033148,0.076073 -0.040768,0 -0.4558489,-0.382123 -0.922403,-0.8491621 z"
     id="path46"
     inkscape:connector-curvature="0" />
  <path
     style="fill:#d3bc5f;stroke-width:0.04484463"
     d="M 4.1491939,4.3061472 C 3.3501929,3.5063573 3.2859944,3.4304503 3.3524048,3.3640398 3.4066601,3.3097845 3.4454667,3.3032284 3.5083449,3.3376946 3.5543854,3.3629313 3.9508389,3.7451413 4.3893528,4.18705 5.171513,4.9752654 5.2506399,5.086834 5.0752366,5.1541425 5.0432801,5.1664054 4.6362014,4.7936356 4.1491939,4.3061472 Z"
     id="path48"
     inkscape:connector-curvature="0" />
  <path
     style="fill:#d3bc5f;stroke-width:0.04484463"
     d="M 4.5490404,3.9424972 C 4.0843597,3.4801496 3.7041664,3.0784134 3.7041664,3.04975 c 0,-0.028663 0.031571,-0.078317 0.070159,-0.1103419 0.060644,-0.05033 0.1878206,0.059319 0.9377297,0.8084886 0.4861606,0.4856811 0.857951,0.8917844 0.845689,0.9237387 -0.067811,0.176711 -0.1792251,0.096175 -1.0087037,-0.7291382 z"
     id="path52"
     inkscape:connector-curvature="0" />
  <path
     style="fill:#d3bc5f;stroke-width:0.04484463"
     d="M 4.9278887,3.5135772 4.6519066,3.2332982 4.8055816,3.0539197 C 4.8901029,2.9552615 5.0451479,2.6765467 5.1501261,2.4345536 5.3665649,1.9356244 5.5369471,1.702763 5.7510141,1.6133202 6.3635704,1.3573778 7.0632545,1.9412973 6.8955142,2.5684597 6.7995987,2.9270769 6.6952353,3.0179718 6.0479288,3.3066606 5.8447929,3.3972562 5.5797481,3.543937 5.4589404,3.632618 5.3381327,3.721299 5.2313207,3.7938562 5.2215804,3.7938562 c -0.00974,0 -0.1419016,-0.1261256 -0.2936917,-0.280279 z M 5.8639854,3.2326089 C 6.1384841,3.0913372 6.3935979,2.9253643 6.462972,2.8429179 6.5689605,2.7169578 6.5813825,2.6699913 6.5640354,2.4608077 6.5486616,2.2754209 6.5156133,2.1924115 6.415631,2.0880525 6.112503,1.7716551 5.6280107,1.8427079 5.4260937,2.2331723 5.3363292,2.4067577 5.3478778,2.5272302 5.4576214,2.5620614 5.5602319,2.5946287 5.6151805,2.5564581 5.6943838,2.397592 5.7227147,2.340766 5.8001731,2.2638062 5.8665135,2.2265702 5.9777175,2.164153 5.9969189,2.1661435 6.1125104,2.2520709 6.2678402,2.3675386 6.304781,2.5923086 6.184534,2.6903061 6.1398853,2.7266935 5.9138348,2.8536753 5.6821997,2.972488 5.2454835,3.196493 5.1501057,3.2819863 5.1979174,3.4065813 5.2428633,3.5237086 5.3555551,3.4942742 5.8639854,3.2326089 Z M 5.4443219,2.7569472 c 0.014526,-0.125257 -0.073169,-0.1912581 -0.1930156,-0.1452685 -0.068786,0.026396 -0.09273,0.200029 -0.035479,0.25728 0.073085,0.073085 0.2151029,0.00347 0.2284946,-0.1120115 z"
     id="path54"
     inkscape:connector-curvature="0" />
  <path
     style="fill:#d3bc5f;stroke-width:0.04484463"
     d="M 5.4765349,4.0645507 C 5.4323041,3.9929839 5.8532253,3.7193431 6.2811238,3.5414876 6.7571496,3.3436281 7.0280555,3.1152429 7.1429308,2.8149473 7.4474192,2.0189842 6.8052856,1.1642894 5.9677337,1.2507324 5.4790035,1.3011738 5.2180365,1.527861 4.9549688,2.1304634 4.7763384,2.5396477 4.5620183,2.9052124 4.4659451,2.9645889 4.335583,3.0451572 4.3621857,2.8919594 4.5536326,2.4596205 5.0368162,1.368461 5.1681256,1.1828633 5.611282,0.96469815 5.8714146,0.83663527 5.9269103,0.82584171 6.2464814,0.84115575 6.6637336,0.86115072 6.9137882,0.9682418 7.1973102,1.2483679 7.8811892,1.9240558 7.7607606,2.987921 6.9463682,3.4651867 6.7360001,3.5884706 5.598794,4.1077686 5.5391837,4.1077686 c -0.019766,0 -0.047958,-0.019448 -0.062649,-0.043218 z"
     id="path56"
     inkscape:connector-curvature="0" />
</svg>
